<svg xmlns="http://www.w3.org/2000/svg" xmlns:svgjs="http://svgjs.dev/svgjs" xmlns:xlink="http://www.w3.org/1999/xlink" width="2000" height="2250" version="1.1" viewBox="0 0 2000 2250"><g transform="matrix(1,0,0,1,3.410605131648481e-13,0)"><svg xmlns="http://www.w3.org/2000/svg" xmlns:xlink="http://www.w3.org/1999/xlink" width="2000" height="2250" data-background-color="#f9f9f9" preserveAspectRatio="xMidYMid meet" viewBox="0 0 320 360"><g id="tight-bounds" transform="matrix(1,0,0,1,0,0)"><svg width="320" height="360" viewBox="0 0 320 360"><g><svg/></g><g><svg width="320" height="360" viewBox="0 0 320 360"><g><path fill="#030303" fill-rule="nonzero" stroke="none" stroke-dashoffset="0" stroke-linecap="butt" stroke-linejoin="miter" stroke-miterlimit="10" stroke-width="1" d="M20.961 227.22l3.726 4.658-1.863-6.056c-0.466-2.795-3.726 0.466-1.863 1.398M25.153 224.425c1.397 2.329 2.795 4.658 2.795 6.987 0 3.261 2.795 4.658 5.123 5.589-3.261-3.726-5.124-13.974-7.918-12.576M204.017 26.929c7.918 0 15.371-0.932 23.756 0.931 20.495 5.124 37.729 15.371 49.374 29.811l32.606 52.169c1.397 13.042 4.192 27.482 3.726 43.319 3.261 0 2.795-4.658 6.521-5.59-3.726 9.316-5.59 20.961-6.521 34.469-2.329-7.453 0-18.632 0.466-24.687-3.261 5.124-5.124 1.397-5.124-0.932 0.466-3.726-1.397-3.261-2.795-4.658-5.124-4.658-8.384-9.782-12.11-17.7 2.329-6.055 2.795-14.905-4.658-19.563-2.329-1.397-5.124-3.726-6.521-7.453-1.863-5.124-5.124-11.179-4.193-19.097 0.466-2.329-6.987 5.124-11.179 1.863-18.166-12.576-36.332-27.016-58.224-39.127-11.645 0-20.029-4.192-24.221-9.316-3.726-4.658-0.932-10.713 4.658-11.179 3.261 0 6.987-0.932 9.782 0.932 0.466-1.863 2.329-4.192 4.657-4.192M157.904 16.215l0.932 0.466c4.658 0.932 6.987 7.453 12.11 5.124 0 3.261 0.466 6.521-0.466 8.85-1.397 3.726-5.59 3.726-8.85 3.726-31.208-1.863-49.374 11.179-68.471 22.358-5.124 3.261-10.713 5.59-14.906 9.782-20.029 18.632-41.921 35.866-47.045 70.335l-4.192 38.195c-0.466 4.192-5.124 8.384-4.192 13.508l3.26 22.824c-3.261-3.261-5.124 0.932-4.192 2.795 0.466 1.397 2.329 6.055 5.124 1.863 3.726 6.987 7.453 20.495 12.576 26.55 15.837 18.632 36.332 35.4 53.101 52.169 4.192-0.932 7.453-0.932 8.384-3.727 1.397 2.795-1.397 5.59-3.726 6.056 7.453 4.658 15.837 8.85 27.016 9.781 14.44 0.932 27.948 3.261 40.524 6.522 6.521-1.863 13.042-2.795 20.029-3.261 2.329 0 3.726-3.726 6.521-4.658l0.466-4.658c2.795 4.192 2.329-1.397 0.466-4.192 3.261 2.795 4.192 5.124 5.589 6.987 0-1.397 3.726-6.521 3.727-0.466l0.931-6.055c1.397-0.932 1.863 5.124 3.261 0.931 1.397-4.192 4.192-0.932 6.987-2.329-0.932 1.863-0.466 5.59 2.794 3.261l3.727-3.261c2.329 5.59 6.055 3.261 7.918 2.329 20.495-13.042 40.99-28.413 60.553-43.784l-0.466 6.055 2.329-7.453c2.329 2.329 4.192 0.466 5.124-0.931 2.795-4.658 6.521-9.316 12.577-13.508-7.453 20.029-16.303 35.866-27.482 48.908l-4.658 5.59c0 3.261-0.932 7.453-4.658 7.918-1.863 0.466-5.59-0.932-8.384 1.863-1.397 1.863 3.261 5.59-0.466 2.795-3.261-2.329-6.521 0-10.248 0.932-2.795 0.932 1.863 3.726 2.795 5.589 0.932 1.863 1.863 3.726 1.398 6.056l-5.124-5.59c-6.055 3.261-9.782 9.316-14.906 13.974-2.329 1.863-1.397 5.124-1.397 7.918-3.261 0-6.987-0.932-8.85 0.932-1.397 1.863-0.932 4.658-0.932 7.453-4.658-0.466-5.124-7.453-9.315-6.056-4.192 0.932-8.85 1.397-12.577 3.727 2.795 5.59-4.658 2.329-3.726 3.26-6.987-4.192-13.042-7.453-20.495-4.658-15.837-5.124-35.4-2.795-49.84-0.931 0-2.329 0.466-4.658-0.466-5.124-0.932 2.329-3.726 1.397-3.26 1.397-8.85-6.055-17.7-9.782-27.016-14.905-8.384 0.932-16.303-3.261-18.632-5.59-6.521-6.055-13.974-2.795-20.029-4.192-13.042-3.261-17.7-16.769-19.098-26.084-0.932-4.658-4.658-6.521-6.055-6.056-6.055-19.563-15.371-37.263-22.824-55.429-1.863-4.658-1.397-9.316-1.397-14.44 2.329 0.932 4.658 0.466 4.192-2.794-2.329-15.371-7.918-27.016-13.974-38.195 3.261-15.837 3.726-34.469 11.179-48.443 6.521-12.576 18.632-19.098 27.016-29.811 2.795-3.726 2.795-8.85 5.59-12.11 9.316-9.316 18.632-19.098 28.879-27.482 4.658-3.726 10.247 0 17.234-1.397 2.329-8.384 11.645-15.837 20.495-13.508 3.726 0.932 11.179-8.85 13.508-9.782 3.726-1.397 1.863 3.726 1.863 6.987 8.85-6.987 20.961-10.713 32.14-14.906" data-fill-palette-color="tertiary" font-family="none" font-size="none" font-weight="none" text-anchor="none" style="mix-blend-mode:normal"/></g><g transform="matrix(1,0,0,1,64,144.46940865177228)"><svg width="192" height="71.061" viewBox="0 0 192 71.061"><g><svg width="192" height="71.061" viewBox="0 0 192 71.061"><g><svg width="192" height="71.061" viewBox="0 0 192 71.061"><g id="textblocktransform"><svg id="textblock" width="192" height="71.061" viewBox="0 0 192 71.061"><g><svg width="192" height="57.09" viewBox="0 0 192 57.09"><path fill="#030303" d="M191.55 12.245C190.648 6.319 188.075 4.671 188.075 4.671 180.177-1.432 170.321-0.117 161.466 0.76 145.832 0.796 130.262 2.1 114.664 2.799 81.926 2.905 48.907 1.151 16.331 5.477 13.271 6.805-3.175 5.738 0.544 13.003 1.519 16.025 5.075 19.38 4.967 22.153 5.455 22.639 6.132 21.525 6.42 22.224 7.431 24.108 9.083 23.22 10.437 24.334 8.551 27.308 9.905 29.785 11.195 32.381 8.921 33.057 6.005 32.737 4.696 34.977 4.561 36.6 3.83 36.292 3.027 36.221 2.44 36.174 1.257 36.351 1.456 36.861 2.133 38.603-0.774 39.611 1.05 41.317-0.205 43.166 1.916 44.766 1.627 46.769 1.591 47.172 1.79 47.516 2.106 47.611 3.505 48.12 1.465 49.116 1.682 50.194 16.033 57.566 31.604 52.47 46.308 55.86 50.126 53.489 47.256 56.701 48.781 56.203 49.972 55.622 50.839 58.028 52.184 56.665 52.392 56.274 52.076 55.35 52.816 55.528 53.204 55.622 53.547 55.599 53.601 55.054 53.682 54.236 52.969 54.745 52.78 54.319 54.829 52.162 54.323 57.294 56.246 57.08 56.156 56.452 55.596 55.551 56.742 55.67 57.88 54.769 57.916 54.022 58.927 56.049 58.963 56.488 59.143 56.796 59.432 57.009 62.591 54.805 65.732 57.791 69.045 56.796 71.076 55.705 73.026 57.388 75.084 56.974 75.806 56.642 76.537 56.049 77.232 57.045 85.744 57.258 94.815 56.369 102.885 57.08 124.449 55.753 147.493 57.625 170.23 55.871 175.592 55.196 181.161 54.236 186.387 53.465 186.387 53.465 190.621 51.356 190.621 41.874S191.523 33.578 191.659 26.028C191.794 18.479 192.426 18.171 191.523 12.245Z" data-fill-palette-color="tertiary" opacity="1"/><g transform="matrix(1,0,0,1,27.072000000000003,18.981962000000003)"><svg width="137.856" height="19.126" data-palette-color="#f9f9f9" viewBox="4.55 -38 279.27 38.75"><path id="text-0" fill="#f9f9f9" d="M26.05-3.05Q22.9 0.75 17.05 0.75 11.2 0.75 8.08-3.08 4.95-6.9 4.85-12.35L4.85-12.35Q4.55-35.25 4.55-35.93 4.55-36.6 5.1-37.3 5.65-38 6.6-38 7.55-38 8.1-37.3 8.65-36.6 8.65-35.8 8.65-35 8.6-32.4L8.6-32.4Q8.4-26.25 8.4-20.45 8.4-14.65 8.58-12.8 8.75-10.95 9.28-8.95 9.8-6.95 10.7-5.7L10.7-5.7Q12.85-2.75 17.05-2.75L17.05-2.75Q22.3-2.75 24.15-6.9L24.15-6.9Q25.75-10.5 25.75-16.43 25.75-22.35 25.63-28.85 25.5-35.35 25.5-35.45L25.5-35.45Q25.5-36.6 26.05-37.3 26.6-38 27.55-38 28.5-38 29.05-37.3 29.6-36.6 29.6-35.45L29.6-35.45Q29.6-26.05 29.3-12.3L29.3-12.3Q29.2-6.85 26.05-3.05ZM41.35-35.5L41.1-18.75 41.35-2Q41.35 0.5 39.45 0.5 37.55 0.5 37.55-2L37.55-2 37.8-18.75 37.55-35.5Q37.55-38 39.45-38 41.35-38 41.35-35.5L41.35-35.5ZM54.2-21.95L54.2-21.95 54.1-10.1Q54.1-5.55 54.47-4.15 54.85-2.75 56.45-2.75L56.45-2.75Q57.2-2.75 58.27-3.28 59.35-3.8 59.7-3.8L59.7-3.8Q60.75-3.8 60.75-2.78 60.75-1.75 58.9-0.63 57.05 0.5 55.25 0.5L55.25 0.5Q50.9 0.5 50.9-5.9L50.9-5.9 50.85-21.95Q49.2-21.8 48.55-21.8L48.55-21.8Q46.05-21.8 46.05-23.45 46.05-25.1 48.55-25.1L48.55-25.1Q48.75-25.1 50.75-25L50.75-25 50.65-30.6Q50.65-33.1 52.55-33.1 54.45-33.1 54.45-30.6L54.45-30.6 54.3-24.95 58.35-25.15Q60.85-25.15 60.85-23.45L60.85-23.45Q60.85-21.85 58.35-21.85L58.35-21.85Q57.9-21.85 54.2-21.95ZM69.34-11.45L69.34-11.45 69.49-2.05Q69.49 0.5 67.59 0.5L67.59 0.5Q65.29 0.5 65.29-3.03 65.29-6.55 66.29-12.9L66.29-12.9Q66.29-15 65.87-18.65 65.44-22.3 65.44-23.2 65.44-24.1 65.97-24.8 66.49-25.5 67.39-25.5 68.29-25.5 68.82-24.8 69.34-24.1 69.34-23.28 69.34-22.45 69.32-21.18 69.29-19.9 69.29-19.05L69.29-19.05Q70.29-21.6 72.42-23.55 74.54-25.5 76.79-25.5 79.04-25.5 80.27-24.58 81.49-23.65 81.49-22.6 81.49-21.55 80.94-20.95 80.39-20.35 79.52-20.35 78.64-20.35 77.62-21.28 76.59-22.2 75.99-22.2L75.99-22.2Q74.34-22.2 72.14-18.65 69.94-15.1 69.34-11.45ZM105.09-12.1L105.09-12.1Q105.09-8.35 105.64-5.98 106.19-3.6 106.94-3.3L106.94-3.3Q107.24-3.15 107.67-3.1 108.09-3.05 108.27-2.95 108.44-2.85 108.44-2.55L108.44-2.55Q108.44-1.2 107.72-0.35 106.99 0.5 105.54 0.5 104.09 0.5 103.29-1.35 102.49-3.2 102.49-6.1L102.49-6.1Q101.24-3.3 98.82-1.4 96.39 0.5 93.37 0.5 90.34 0.5 88.14-1.5L88.14-1.5Q84.14-5.15 84.14-11.95L84.14-11.95Q84.14-17.4 87.29-21.45 90.44-25.5 95.39-25.5L95.39-25.5Q99.14-25.5 101.89-22.95L101.89-22.95Q101.89-25.5 103.79-25.5L103.79-25.5Q106.09-25.5 106.09-21.98 106.09-18.45 105.09-12.1ZM102.19-11.65L102.19-11.65 101.94-19.35Q98.94-22.25 95.67-22.25 92.39-22.25 90.04-19.3 87.69-16.35 87.69-12.23 87.69-8.1 89.22-5.43 90.74-2.75 93.54-2.75 96.34-2.75 98.64-5.25 100.94-7.75 102.19-11.65ZM140.74-1.5L140.74-1.5Q139.99 0.5 138.19 0.5 136.39 0.5 135.64-1.35L135.64-1.35Q133.24-7.6 130.71-14.6 128.19-21.6 127.06-24.68 125.94-27.75 125.39-29.23 124.84-30.7 124.29-32.2L124.29-32.2Q123.44-34.7 123.44-35.77 123.44-36.85 123.96-37.43 124.49-38 125.34-38L125.34-38Q126.79-38 127.54-36.15L127.54-36.15Q127.59-36.05 128.66-32.75 129.74-29.45 131.21-24.98 132.69-20.5 134.24-16L134.24-16Q137.94-5.3 138.29-5.3 138.64-5.3 140.81-12 142.99-18.7 145.61-27.33 148.24-35.95 148.24-36L148.24-36Q148.84-38 150.34-38L150.34-38Q151.24-38 151.71-37.45 152.19-36.9 152.19-36.15 152.19-35.4 151.51-33.25 150.84-31.1 149.21-26.28 147.59-21.45 145.11-13.8 142.64-6.15 140.74-1.5ZM165.01-13.45Q168.38-13.45 170.41-14.6 172.43-15.75 172.43-17.7 172.43-19.65 171.11-21.08 169.78-22.5 167.33-22.5L167.33-22.5Q164.03-22.5 161.78-20.03 159.53-17.55 158.88-14.25L158.88-14.25Q161.63-13.45 165.01-13.45ZM166.91-25.75Q170.93-25.75 173.46-23.5 175.98-21.25 175.98-17.65 175.98-14.05 172.86-12.18 169.73-10.3 165.18-10.3L165.18-10.3Q162.58-10.3 158.83-11.05L158.83-11.05Q159.13-7.55 161.46-5.03 163.78-2.5 166.63-2.5L166.63-2.5Q168.33-2.5 169.78-2.98 171.23-3.45 171.98-4L171.98-4Q173.98-5.55 174.61-5.55 175.23-5.55 175.61-5.18 175.98-4.8 175.98-4.25L175.98-4.25Q175.98-2.85 173.11-1.05 170.23 0.75 166.88 0.75L166.88 0.75Q161.68 0.75 158.63-2.9 155.58-6.55 155.33-11.7L155.33-11.7Q152.68-12.5 152.68-14.3L152.68-14.3Q152.68-15.05 153.11-15.48 153.53-15.9 154.13-15.9 154.73-15.9 155.63-15.45L155.63-15.45Q156.73-19.95 159.81-22.85 162.88-25.75 166.91-25.75ZM203.23-15.75L203.23-15.75 202.98-7.9Q202.98-6.5 203.01-5.78 203.03-5.05 203.31-4.28 203.58-3.5 203.98-3.33 204.38-3.15 204.81-3.1 205.23-3.05 205.41-2.95 205.58-2.85 205.58-2.55L205.58-2.55Q205.58-1.25 204.76-0.38 203.93 0.5 202.83 0.5L202.83 0.5Q200.93 0.5 200.21-1 199.48-2.5 199.48-5.4L199.48-5.4 199.68-14.6Q199.68-18 198.23-20.1 196.78-22.2 194.21-22.2 191.63-22.2 189.23-19.35 186.83-16.5 185.88-12.9L185.88-12.9 186.03-2.05Q186.03 0.5 184.13 0.5L184.13 0.5Q181.83 0.5 181.83-3.03 181.83-6.55 182.83-12.9L182.83-12.9Q182.83-15 182.41-18.7 181.98-22.4 181.98-23.28 181.98-24.15 182.51-24.83 183.03-25.5 183.93-25.5 184.83-25.5 185.36-24.83 185.88-24.15 185.88-23.3 185.88-22.45 185.86-21.23 185.83-20 185.83-19.15L185.83-19.15Q189.48-25.5 194.83-25.5L194.83-25.5Q198.83-25.5 201.03-22.65 203.23-19.8 203.23-15.75ZM214.68-21.4L214.68-21.4 214.28-10.4Q214.28-7 215.73-4.88 217.18-2.75 219.75-2.75 222.33-2.75 224.73-5.63 227.13-8.5 228.08-12.1L228.08-12.1 227.93-22.95Q227.93-25.5 229.83-25.5L229.83-25.5Q232.13-25.5 232.13-21.98 232.13-18.45 231.13-12.1L231.13-12.1Q231.13-8.35 231.68-5.98 232.23-3.6 232.98-3.3L232.98-3.3Q233.28-3.15 233.7-3.1 234.13-3.05 234.3-2.95 234.48-2.85 234.48-2.55L234.48-2.55Q234.48-1.2 233.65-0.35 232.83 0.5 231.58 0.5L231.58 0.5Q228.43 0.5 228.43-5.9L228.43-5.9Q224.73 0.5 219.13 0.5L219.13 0.5Q215.13 0.5 212.93-2.48 210.73-5.45 210.73-9.75L210.73-9.75 211.03-17.3Q211.03-19.3 210.63-21.03 210.23-22.75 210.23-23.5 210.23-24.25 210.83-24.88 211.43-25.5 212.38-25.5L212.38-25.5Q214.68-25.5 214.68-21.4ZM249.6-13.45Q252.98-13.45 255-14.6 257.03-15.75 257.03-17.7 257.03-19.65 255.7-21.08 254.38-22.5 251.93-22.5L251.93-22.5Q248.63-22.5 246.38-20.03 244.13-17.55 243.48-14.25L243.48-14.25Q246.23-13.45 249.6-13.45ZM251.5-25.75Q255.53-25.75 258.05-23.5 260.58-21.25 260.58-17.65 260.58-14.05 257.45-12.18 254.33-10.3 249.78-10.3L249.78-10.3Q247.18-10.3 243.43-11.05L243.43-11.05Q243.73-7.55 246.05-5.03 248.38-2.5 251.23-2.5L251.23-2.5Q252.93-2.5 254.38-2.98 255.83-3.45 256.58-4L256.58-4Q258.58-5.55 259.2-5.55 259.83-5.55 260.2-5.18 260.58-4.8 260.58-4.25L260.58-4.25Q260.58-2.85 257.7-1.05 254.83 0.75 251.48 0.75L251.48 0.75Q246.28 0.75 243.23-2.9 240.18-6.55 239.93-11.7L239.93-11.7Q237.28-12.5 237.28-14.3L237.28-14.3Q237.28-15.05 237.7-15.48 238.13-15.9 238.73-15.9 239.33-15.9 240.23-15.45L240.23-15.45Q241.33-19.95 244.4-22.85 247.48-25.75 251.5-25.75ZM283.82-7.2L283.82-7.2Q283.82-3.8 281.05-1.65 278.27 0.5 274.4 0.5 270.52 0.5 267.67-1.28 264.82-3.05 264.82-4.8L264.82-4.8Q264.82-5.55 265.27-6.03 265.72-6.5 266.3-6.5 266.87-6.5 267.22-6.28 267.57-6.05 268.17-5.4 268.77-4.75 269.25-4.3 269.72-3.85 271.2-3.3 272.67-2.75 273.92-2.75L273.92-2.75Q276.67-2.75 278.45-3.88 280.22-5 280.22-7.15L280.22-7.15Q280.22-9.75 275.22-11.5L275.22-11.5Q273.17-12.2 271.1-13.03 269.02-13.85 267.57-15.3 266.12-16.75 266.12-18.75L266.12-18.75Q266.12-21.45 268.57-23.48 271.02-25.5 274.57-25.5 278.12-25.5 280.2-24.28 282.27-23.05 282.27-21.7L282.27-21.7Q282.27-20.05 280.52-20.05L280.52-20.05Q279.77-20.05 279.02-20.6L279.02-20.6Q276.67-22.25 274.52-22.25 272.37-22.25 271.02-21.28 269.67-20.3 269.67-19.03 269.67-17.75 271.12-16.85 272.57-15.95 274.65-15.2 276.72-14.45 278.82-13.53 280.92-12.6 282.37-10.98 283.82-9.35 283.82-7.2Z" class="wordmark-text-0" data-fill-palette-color="quaternary" opacity="1" transform="matrix(1,0,0,1,0,0)"/></svg></g></svg></g><g transform="matrix(1,0,0,1,62.96791418855186,61.605238378517726)"><svg width="66.064" height="9.456" viewBox="0 0 66.064 9.456"><g transform="matrix(1,0,0,1,0,0)"><svg width="66.064" height="9.456" data-palette-color="#030303" viewBox="1.45 -36.3 259.17 37.1"><path id="text-1" fill="#030303" d="M15.35 0.8Q11.05 0.8 7.93-1.33 4.8-3.45 3.13-7.43 1.45-11.4 1.45-16.95L1.45-16.95Q1.45-22.55 3.13-26.58 4.8-30.6 7.93-32.73 11.05-34.85 15.35-34.85L15.35-34.85Q19.3-34.85 22.18-33.08 25.05-31.3 27.1-27.85L27.1-27.85 24.15-25.75Q21-31.45 15.35-31.45L15.35-31.45Q10.65-31.45 8.03-27.63 5.4-23.8 5.4-17L5.4-17Q5.4-10.25 8.05-6.43 10.7-2.6 15.35-2.6L15.35-2.6Q17.95-2.6 20.03-3.85 22.1-5.1 23.3-7.55 24.5-10 24.5-13.55L24.5-13.55 16.45-13.55 16.45-16.65 28.2-16.65 28.2-13.55Q28.2-8.9 26.55-5.68 24.9-2.45 21.98-0.83 19.05 0.8 15.35 0.8L15.35 0.8ZM43.55-24.2Q46.7-24.2 49.25-22.65 51.8-21.1 53.25-18.43 54.7-15.75 54.7-12.45L54.7-12.45Q54.7-11.5 54.65-11L54.65-11 35.4-11Q35.6-7.4 37.75-4.85 39.9-2.3 43.6-2.3L43.6-2.3Q46.6-2.3 48.57-3.43 50.55-4.55 51.75-6.55L51.75-6.55 54.45-4.75Q52.8-2.15 50.1-0.68 47.4 0.8 43.7 0.8L43.7 0.8Q40.3 0.8 37.65-0.8 35-2.4 33.5-5.25 32-8.1 32-11.7L32-11.7Q32-15.3 33.47-18.15 34.95-21 37.57-22.6 40.2-24.2 43.55-24.2L43.55-24.2ZM35.6-13.8L51.3-13.8Q50.8-17.45 48.85-19.28 46.9-21.1 43.55-21.1L43.55-21.1Q40.3-21.1 38.22-19.03 36.15-16.95 35.6-13.8L35.6-13.8ZM64.34 0L60.95 0 60.95-20.3 56.95-20.3 56.95-23.4 60.95-23.4 60.95-31.15 64.34-31.15 64.34-23.4 69.75-23.4 69.75-20.3 64.34-20.3 64.34 0ZM89.24 0L85.84 0 85.84-20.3 81.84-20.3 81.84-23.4 85.84-23.4 85.84-31.15 89.24-31.15 89.24-23.4 94.64-23.4 94.64-20.3 89.24-20.3 89.24 0ZM109.49-24.2Q111.94-24.2 114.01-23.2 116.09-22.2 117.31-20.25 118.54-18.3 118.54-15.65L118.54-15.65 118.54 0 115.14 0 115.14-14.15Q115.14-21.1 108.94-21.1L108.94-21.1Q105.34-21.1 103.54-18.55 101.74-16 101.74-11.7L101.74-11.7 101.74 0 98.34 0 98.34-36.3 101.74-36.3 101.74-19.5Q102.94-21.75 104.91-22.98 106.89-24.2 109.49-24.2L109.49-24.2ZM135.14-24.2Q138.29-24.2 140.84-22.65 143.39-21.1 144.84-18.43 146.29-15.75 146.29-12.45L146.29-12.45Q146.29-11.5 146.24-11L146.24-11 126.99-11Q127.19-7.4 129.34-4.85 131.49-2.3 135.19-2.3L135.19-2.3Q138.19-2.3 140.16-3.43 142.14-4.55 143.34-6.55L143.34-6.55 146.04-4.75Q144.39-2.15 141.69-0.68 138.99 0.8 135.29 0.8L135.29 0.8Q131.89 0.8 129.24-0.8 126.59-2.4 125.09-5.25 123.59-8.1 123.59-11.7L123.59-11.7Q123.59-15.3 125.06-18.15 126.54-21 129.16-22.6 131.79-24.2 135.14-24.2L135.14-24.2ZM127.19-13.8L142.89-13.8Q142.39-17.45 140.44-19.28 138.49-21.1 135.14-21.1L135.14-21.1Q131.89-21.1 129.81-19.03 127.74-16.95 127.19-13.8L127.19-13.8ZM189.78-18.35Q192.73-17.6 194.33-15.45 195.93-13.3 195.93-9.8L195.93-9.8Q195.93-5.25 193.18-2.63 190.43 0 185.63 0L185.63 0 173.23 0 173.23-34.1 184.48-34.1Q189.03-34.1 191.63-31.73 194.23-29.35 194.23-25.4L194.23-25.4Q194.23-22.85 193.08-21.03 191.93-19.2 189.78-18.35L189.78-18.35ZM176.98-30.95L176.98-19.55 184.93-19.55Q190.28-19.55 190.28-25.4L190.28-25.4Q190.28-28.05 188.73-29.5 187.18-30.95 184.43-30.95L184.43-30.95 176.98-30.95ZM185.13-3.1Q188.33-3.1 190.16-4.9 191.98-6.7 191.98-9.8L191.98-9.8Q191.98-12.9 190.16-14.68 188.33-16.45 185.13-16.45L185.13-16.45 176.98-16.45 176.98-3.1 185.13-3.1ZM211.23-24.2Q214.38-24.2 216.93-22.65 219.48-21.1 220.93-18.43 222.38-15.75 222.38-12.45L222.38-12.45Q222.38-11.5 222.33-11L222.33-11 203.08-11Q203.28-7.4 205.43-4.85 207.58-2.3 211.28-2.3L211.28-2.3Q214.28-2.3 216.25-3.43 218.23-4.55 219.43-6.55L219.43-6.55 222.13-4.75Q220.48-2.15 217.78-0.68 215.08 0.8 211.38 0.8L211.38 0.8Q207.98 0.8 205.33-0.8 202.68-2.4 201.18-5.25 199.68-8.1 199.68-11.7L199.68-11.7Q199.68-15.3 201.15-18.15 202.63-21 205.25-22.6 207.88-24.2 211.23-24.2L211.23-24.2ZM203.28-13.8L218.98-13.8Q218.48-17.45 216.53-19.28 214.58-21.1 211.23-21.1L211.23-21.1Q207.98-21.1 205.9-19.03 203.83-16.95 203.28-13.8L203.28-13.8ZM235.63 0.8Q232.23 0.8 229.65-0.65 227.08-2.1 225.73-4.75L225.73-4.75 228.78-6.25Q230.63-2.3 236.03-2.3L236.03-2.3Q238.63-2.3 240.33-3.25 242.03-4.2 242.03-6.2L242.03-6.2Q242.03-8.25 240.65-9.25 239.28-10.25 235.83-10.55L235.83-10.55Q231.03-10.95 228.95-12.7 226.88-14.45 226.88-17.35L226.88-17.35Q226.88-20.6 229.23-22.4 231.58-24.2 235.68-24.2L235.68-24.2Q242.63-24.2 245.13-18.7L245.13-18.7 242.08-17.2Q241.23-19.2 239.6-20.15 237.98-21.1 235.43-21.1L235.43-21.1Q232.83-21.1 231.45-20.15 230.08-19.2 230.08-17.45L230.08-17.45Q230.08-15.8 231.55-14.78 233.03-13.75 236.63-13.45L236.63-13.45Q241.08-13.05 243.25-11.28 245.43-9.5 245.43-6.6L245.43-6.6Q245.43-4.25 244.08-2.58 242.73-0.9 240.48-0.05 238.23 0.8 235.63 0.8L235.63 0.8ZM255.22 0L251.82 0 251.82-20.3 247.82-20.3 247.82-23.4 251.82-23.4 251.82-31.15 255.22-31.15 255.22-23.4 260.62-23.4 260.62-20.3 255.22-20.3 255.22 0Z" class="slogan-text-1" data-fill-palette-color="secondary" opacity="1" transform="matrix(1,0,0,1,0,0)"/></svg></g></svg></g></svg></g></svg></g></svg></g></svg></g></svg></g></svg><rect width="320" height="360" fill="none" stroke="none" visibility="hidden"/></g></svg></g></svg>