<svg xmlns="http://www.w3.org/2000/svg" xmlns:xlink="http://www.w3.org/1999/xlink" width="150" height="100" viewBox="0 0 150 100"><defs><style>.cls-1{fill:#1e1d1f;filter:url(#filter)}.cls-2{fill:#fff;filter:url(#filter-2)}.cls-3,.cls-5,.cls-6{fill:#5621cb}.cls-4,.cls-7{fill:#ecebef}.cls-5{opacity:.1}.cls-6,.cls-7{fill-rule:evenodd}</style><filter id="filter" width="229" height="179" x="-39" y="-39" filterUnits="userSpaceOnUse"><feOffset in="SourceAlpha" result="offset"/><feGaussianBlur result="blur" stdDeviation="6.325"/><feFlood flood-color="#2d2d2d" flood-opacity=".07" result="flood"/><feComposite in2="blur" operator="in" result="composite"/><feBlend in="SourceGraphic" result="blend"/></filter><filter id="filter-2" width="154" height="179" x="37" y="-39" filterUnits="userSpaceOnUse"><feOffset in="SourceAlpha" result="offset"/><feGaussianBlur result="blur" stdDeviation="6.325"/><feFlood flood-color="#2d2d2d" flood-opacity=".07" result="flood"/><feComposite in2="blur" operator="in" result="composite"/><feBlend in="SourceGraphic" result="blend"/></filter></defs><rect width="150" height="100" class="cls-1" rx="5" ry="5"/><path id="Rectangle_1_copy" d="M76,0h70a5,5,0,0,1,5,5V95a5,5,0,0,1-5,5H76a0,0,0,0,1,0,0V0A0,0,0,0,1,76,0Z" class="cls-2" data-name="Rectangle 1 copy"/><rect width="153" height="8" x="-1" y="-2" class="cls-3"/><rect width="154" height="2" x="-3" y="23" class="cls-4"/><rect width="2" height="77" x="25" y="25" class="cls-4"/><rect width="102" height="5" x="37" y="42" class="cls-4"/><rect id="Rectangle_5_copy" width="102" height="5" x="37" y="54" class="cls-4" data-name="Rectangle 5 copy"/><rect id="Rectangle_5_copy_2" width="80" height="5" x="58" y="66" class="cls-4" data-name="Rectangle 5 copy 2"/><rect id="Rectangle_5_copy_3" width="11" height="5" x="38" y="66" class="cls-4" data-name="Rectangle 5 copy 3"/><rect id="Rectangle_5_copy_4" width="80" height="5" x="58" y="76" class="cls-4" data-name="Rectangle 5 copy 4"/><rect id="Rectangle_5_copy_4-2" width="11" height="5" x="38" y="76" class="cls-4" data-name="Rectangle 5 copy 4"/><rect width="42" height="8" x="38" y="30" class="cls-4"/><rect width="18" height="7" x="120" y="87" class="cls-5" rx="2" ry="2"/><path d="M6,10.333h7.667V18H6V10.333Z" class="cls-6"/><path id="Rectangle_8_copy" d="M136,10.333h7.667V18H136V10.333Z" class="cls-7" data-name="Rectangle 8 copy"/><path id="Rectangle_8_copy_2" d="M123,9.989h8.011V18H123V9.989Z" class="cls-7" data-name="Rectangle 8 copy 2"/></svg>